<?xml version="1.0" encoding="UTF-8"?><svg xmlns="http://www.w3.org/2000/svg" xmlns:xlink="http://www.w3.org/1999/xlink" width="375" zoomAndPan="magnify" viewBox="0 0 375 374.999991" height="374.999991" preserveAspectRatio="xMidYMid meet" version="1.0"><path fill="rgb(100%, 85.099792%, 11.369324%)" d="M 187.5 0 C 83.964844 0 0 83.964844 0 187.5 C 0 291.035156 83.964844 375 187.5 375 C 291.035156 375 375 291.035156 375 187.5 C 375 83.964844 291.035156 0 187.5 0 Z M 187.5 0 " fill-opacity="1" fill-rule="nonzero"/><path fill="rgb(100%, 100%, 100%)" d="M 210.703125 109.886719 C 208.359375 106.863281 205.183594 105.351562 201.253906 105.351562 C 197.777344 105.351562 195.433594 106.03125 194.152344 107.316406 C 192.867188 108.675781 190.21875 112.152344 186.0625 117.972656 C 181.90625 123.714844 177.222656 128.929688 171.855469 133.617188 C 166.492188 138.300781 159.386719 142.683594 150.46875 146.917969 C 144.5 149.710938 140.339844 151.980469 137.921875 153.792969 C 135.582031 155.53125 134.371094 158.328125 134.371094 162.105469 C 134.371094 165.355469 135.582031 168.230469 138 170.722656 C 140.417969 173.214844 143.136719 174.425781 146.238281 174.425781 C 152.734375 174.425781 165.355469 167.246094 184.097656 152.8125 L 184.097656 253.550781 C 184.097656 259.445312 185.460938 263.90625 188.179688 266.929688 C 190.902344 269.953125 194.527344 271.464844 199.0625 271.464844 C 209.191406 271.464844 214.253906 264.058594 214.253906 249.246094 L 214.253906 122.429688 C 214.253906 117.140625 213.042969 112.90625 210.703125 109.886719 " fill-opacity="1" fill-rule="nonzero"/></svg>