<?xml version="1.0" encoding="UTF-8"?><svg xmlns="http://www.w3.org/2000/svg" xmlns:xlink="http://www.w3.org/1999/xlink" width="375" zoomAndPan="magnify" viewBox="0 0 375 374.999991" height="374.999991" preserveAspectRatio="xMidYMid meet" version="1.0"><path fill="rgb(100%, 85.099792%, 11.369324%)" d="M 187.5 0 C 83.964844 0 0 83.964844 0 187.5 C 0 291.035156 83.964844 375 187.5 375 C 291.035156 375 375 291.035156 375 187.5 C 375 83.964844 291.035156 0 187.5 0 Z M 187.5 0 " fill-opacity="1" fill-rule="nonzero"/><path fill="rgb(100%, 100%, 100%)" d="M 241.6875 246.070312 C 238.664062 243.726562 234.28125 242.519531 228.535156 242.519531 L 170.722656 242.519531 C 172.535156 239.722656 174.351562 237.304688 176.164062 235.339844 C 180.320312 230.351562 187.953125 223.246094 198.988281 214.175781 C 210.097656 205.109375 218.03125 198.457031 222.71875 194.226562 C 227.402344 189.992188 232.089844 184.097656 236.625 176.617188 C 241.15625 169.136719 243.425781 160.820312 243.425781 151.675781 C 243.425781 145.859375 242.367188 140.191406 240.175781 134.824219 C 237.984375 129.382812 234.960938 124.621094 231.03125 120.464844 C 227.101562 116.308594 222.566406 113.058594 217.425781 110.714844 C 209.492188 107.164062 199.820312 105.425781 188.558594 105.425781 C 179.1875 105.425781 171.023438 106.785156 164.070312 109.582031 C 157.117188 112.378906 151.375 116.007812 146.765625 120.464844 C 142.230469 125 138.832031 129.988281 136.5625 135.503906 C 134.296875 141.023438 133.160156 146.386719 133.160156 151.449219 C 133.160156 155.683594 134.371094 159.007812 136.789062 161.425781 C 139.207031 163.84375 142.304688 165.054688 146.007812 165.054688 C 150.242188 165.054688 153.414062 163.695312 155.609375 161.050781 C 157.800781 158.402344 159.765625 154.625 161.503906 149.636719 C 163.242188 144.726562 164.449219 141.703125 165.207031 140.566406 C 170.722656 132.105469 178.355469 127.871094 188.027344 127.871094 C 192.640625 127.871094 196.796875 128.929688 200.726562 130.96875 C 204.578125 133.011719 207.679688 135.957031 209.945312 139.660156 C 212.210938 143.363281 213.347656 147.597656 213.347656 152.359375 C 213.347656 156.742188 212.289062 161.125 210.171875 165.734375 C 208.054688 170.34375 205.035156 174.726562 200.953125 179.035156 C 196.945312 183.34375 191.882812 187.652344 185.835938 191.957031 C 182.4375 194.226562 176.769531 199.0625 168.910156 206.316406 C 160.972656 213.574219 152.132812 222.339844 142.304688 232.464844 C 139.964844 234.960938 137.773438 238.4375 135.808594 242.820312 C 133.84375 247.203125 132.785156 250.753906 132.785156 253.402344 C 132.785156 257.558594 134.371094 261.109375 137.46875 264.207031 C 140.566406 267.304688 144.875 268.816406 150.394531 268.816406 L 231.863281 268.816406 C 236.699219 268.816406 240.402344 267.535156 242.746094 265.039062 C 245.164062 262.546875 246.371094 259.445312 246.371094 255.820312 C 246.222656 251.664062 244.710938 248.414062 241.6875 246.070312 " fill-opacity="1" fill-rule="nonzero"/></svg>