<?xml version="1.0" encoding="UTF-8"?><svg xmlns="http://www.w3.org/2000/svg" xmlns:xlink="http://www.w3.org/1999/xlink" width="375" zoomAndPan="magnify" viewBox="0 0 375 374.999991" height="374.999991" preserveAspectRatio="xMidYMid meet" version="1.0"><path fill="rgb(100%, 85.099792%, 11.369324%)" d="M 187.5 0 C 83.964844 0 0 83.964844 0 187.5 C 0 291.035156 83.964844 375 187.5 375 C 291.035156 375 375 291.035156 375 187.5 C 375 83.964844 291.035156 0 187.5 0 Z M 187.5 0 " fill-opacity="1" fill-rule="nonzero"/><path fill="rgb(100%, 100%, 100%)" d="M 241.609375 203.824219 C 239.644531 198.988281 236.625 194.605469 232.695312 190.597656 C 228.761719 186.59375 223.925781 183.042969 218.109375 179.941406 C 224.078125 174.953125 228.6875 169.738281 231.863281 164.523438 C 235.035156 159.234375 236.699219 152.886719 236.699219 145.554688 C 236.699219 139.964844 235.566406 134.671875 233.375 129.835938 C 231.183594 125 227.855469 120.691406 223.550781 116.988281 C 219.164062 113.285156 214.101562 110.488281 208.132812 108.523438 C 202.238281 106.558594 195.660156 105.578125 188.558594 105.578125 C 180.394531 105.578125 172.914062 106.710938 166.339844 109.054688 C 159.765625 111.398438 154.171875 114.496094 149.710938 118.273438 C 145.253906 122.128906 141.851562 126.132812 139.511719 130.367188 C 137.167969 134.597656 136.035156 138.679688 136.035156 142.457031 C 136.035156 146.464844 137.242188 149.636719 139.738281 152.054688 C 142.230469 154.472656 144.953125 155.683594 147.898438 155.683594 C 150.394531 155.683594 152.585938 155.230469 154.550781 154.324219 C 156.4375 153.414062 157.800781 152.207031 158.554688 150.695312 C 159.839844 147.824219 161.199219 144.726562 162.710938 141.476562 C 164.222656 138.226562 165.808594 135.582031 167.546875 133.539062 C 169.210938 131.5 171.554688 129.835938 174.5 128.550781 C 177.449219 127.265625 181.152344 126.664062 185.609375 126.664062 C 192.261719 126.664062 197.550781 128.703125 201.40625 132.785156 C 205.335938 136.863281 207.300781 141.777344 207.300781 147.445312 C 207.300781 154.925781 204.882812 160.59375 199.96875 164.601562 C 195.058594 168.605469 189.238281 170.570312 182.4375 170.570312 L 177.902344 170.570312 C 172.6875 170.570312 168.683594 171.628906 166.035156 173.820312 C 163.390625 176.011719 162.03125 178.882812 162.03125 182.4375 C 162.03125 186.0625 163.164062 188.859375 165.355469 190.902344 C 167.546875 192.941406 170.722656 193.921875 174.804688 193.921875 C 175.710938 193.921875 177.675781 193.773438 180.773438 193.46875 C 183.871094 193.167969 186.140625 193.015625 187.652344 193.015625 C 196.039062 193.015625 202.613281 195.433594 207.375 200.347656 C 212.0625 205.261719 214.480469 212.0625 214.480469 220.675781 C 214.480469 226.496094 213.121094 231.636719 210.324219 236.09375 C 207.527344 240.554688 204.050781 243.878906 199.820312 246.144531 C 195.585938 248.414062 191.128906 249.546875 186.59375 249.546875 C 178.65625 249.546875 172.460938 247.050781 168.078125 242.066406 C 163.695312 237.078125 159.539062 229.445312 155.757812 219.242188 C 155.152344 217.578125 153.945312 216.066406 151.980469 214.859375 C 150.089844 213.648438 148.050781 213.042969 146.007812 213.042969 C 141.851562 213.042969 138.453125 214.328125 135.65625 216.972656 C 132.859375 219.617188 131.5 223.019531 131.5 227.328125 C 131.5 230.652344 132.632812 234.886719 134.976562 239.949219 C 137.320312 245.011719 140.71875 250 145.253906 254.761719 C 149.789062 259.523438 155.53125 263.453125 162.558594 266.625 C 169.589844 269.800781 177.523438 271.386719 186.367188 271.386719 C 195.058594 271.386719 202.992188 270.027344 210.246094 267.230469 C 217.503906 264.433594 223.625 260.65625 228.914062 255.742188 C 234.128906 250.832031 238.136719 245.238281 240.78125 238.964844 C 243.5 232.695312 244.785156 226.195312 244.785156 219.46875 C 244.558594 213.875 243.578125 208.660156 241.609375 203.824219 " fill-opacity="1" fill-rule="nonzero"/></svg>