<?xml version="1.0" encoding="UTF-8"?><svg xmlns="http://www.w3.org/2000/svg" xmlns:xlink="http://www.w3.org/1999/xlink" contentScriptType="text/ecmascript" width="375" zoomAndPan="magnify" contentStyleType="text/css" viewBox="0 0 375 374.999991" height="374.999991" preserveAspectRatio="xMidYMid meet" version="1.0"><defs><clipPath id="clip-0"><path d="M 0 33.46875 L 375 33.46875 L 375 346.636719 L 0 346.636719 Z M 0 33.46875 " clip-rule="nonzero"/></clipPath></defs><path fill="rgb(25.878906%, 25.878906%, 25.878906%)" d="M 342.769531 74.59375 L 342.769531 173.648438 C 342.769531 176.722656 341.515625 179.507812 339.496094 181.523438 L 339.46875 181.523438 C 337.449219 183.539062 334.667969 184.792969 331.605469 184.792969 L 178.75 184.792969 C 175.6875 184.792969 172.90625 183.539062 170.882812 181.523438 L 170.859375 181.523438 C 168.839844 179.507812 167.585938 176.722656 167.585938 173.648438 L 167.585938 74.59375 C 167.585938 71.523438 168.839844 68.738281 170.859375 66.722656 C 172.878906 64.699219 175.671875 63.453125 178.75 63.453125 L 331.605469 63.453125 C 334.683594 63.453125 337.476562 64.699219 339.496094 66.722656 C 341.515625 68.738281 342.769531 71.523438 342.769531 74.59375 Z M 293.199219 118.792969 L 287.628906 109.148438 L 282.066406 118.765625 L 265.070312 148.167969 L 238.183594 101.671875 L 232.617188 92.046875 L 227.054688 101.671875 L 194.929688 157.226562 L 189.339844 166.882812 L 321.011719 166.882812 L 315.441406 157.25 L 293.199219 118.792969 " fill-opacity="1" fill-rule="evenodd"/><g clip-path="url(#clip-0)"><path fill="rgb(25.878906%, 25.878906%, 25.878906%)" d="M 12.179688 33.46875 L 356.789062 33.46875 C 361.902344 33.46875 366.546875 35.550781 369.90625 38.910156 C 373.269531 42.265625 375.355469 46.902344 375.355469 52.007812 L 375.355469 328.09375 C 375.355469 333.203125 373.269531 337.839844 369.90625 341.195312 C 366.546875 344.554688 361.902344 346.636719 356.789062 346.636719 L 12.179688 346.636719 C 7.0625 346.636719 2.417969 344.554688 -0.945312 341.195312 C -4.308594 337.839844 -6.394531 333.203125 -6.394531 328.09375 L -6.394531 52.007812 C -6.394531 46.902344 -4.308594 42.261719 -0.945312 38.910156 C 2.417969 35.550781 7.0625 33.46875 12.179688 33.46875 Z M 356.789062 49.949219 L 12.179688 49.949219 C 11.621094 49.949219 11.105469 50.183594 10.726562 50.5625 C 10.347656 50.941406 10.113281 51.457031 10.113281 52.007812 L 10.113281 328.09375 C 10.113281 328.652344 10.347656 329.164062 10.726562 329.542969 C 11.105469 329.921875 11.621094 330.15625 12.179688 330.15625 L 356.789062 330.15625 C 357.34375 330.15625 357.859375 329.921875 358.234375 329.542969 C 358.613281 329.164062 358.847656 328.648438 358.847656 328.09375 L 358.847656 52.007812 C 358.847656 51.457031 358.613281 50.941406 358.234375 50.5625 C 357.863281 50.183594 357.34375 49.949219 356.789062 49.949219 " fill-opacity="1" fill-rule="nonzero"/></g></svg>