<?xml version="1.0" encoding="UTF-8"?><svg xmlns="http://www.w3.org/2000/svg" xmlns:xlink="http://www.w3.org/1999/xlink" width="224.87999" zoomAndPan="magnify" viewBox="0 0 224.87999 225" height="225" preserveAspectRatio="xMidYMid meet" version="1.0"><defs><clipPath id="clip-0"><path d="M 22.488281 96 L 202.390625 96 L 202.390625 183.039062 L 22.488281 183.039062 Z M 22.488281 96 " clip-rule="nonzero"/></clipPath><clipPath id="clip-1"><path d="M 92 42.113281 L 132 42.113281 L 132 82 L 92 82 Z M 92 42.113281 " clip-rule="nonzero"/></clipPath></defs><path fill="rgb(86.268616%, 20.779419%, 27.059937%)" d="M 42.054688 167.378906 C 39.894531 167.378906 38.144531 165.625 38.144531 163.464844 L 38.144531 116.488281 C 38.144531 114.328125 39.894531 112.574219 42.054688 112.574219 L 65.515625 112.574219 C 67.675781 112.574219 69.425781 114.328125 69.425781 116.488281 C 69.425781 118.652344 67.675781 120.402344 65.515625 120.402344 L 45.964844 120.402344 L 45.964844 163.464844 C 45.964844 165.625 44.210938 167.378906 42.054688 167.378906 Z M 42.054688 167.378906 " fill-opacity="1" fill-rule="nonzero"/><path fill="rgb(86.268616%, 20.779419%, 27.059937%)" d="M 57.695312 143.890625 L 42.054688 143.890625 C 39.894531 143.890625 38.144531 142.136719 38.144531 139.976562 C 38.144531 137.816406 39.894531 136.0625 42.054688 136.0625 L 57.695312 136.0625 C 59.855469 136.0625 61.605469 137.816406 61.605469 139.976562 C 61.605469 142.136719 59.855469 143.890625 57.695312 143.890625 Z M 57.695312 143.890625 " fill-opacity="1" fill-rule="nonzero"/><path fill="rgb(86.268616%, 20.779419%, 27.059937%)" d="M 104.621094 167.378906 C 103.617188 167.378906 102.617188 166.996094 101.851562 166.234375 L 85.066406 149.425781 L 85.066406 163.464844 C 85.066406 165.625 83.316406 167.378906 81.15625 167.378906 C 79 167.378906 77.246094 165.625 77.246094 163.464844 L 77.246094 140 C 77.246094 139.984375 77.246094 139.960938 77.246094 139.945312 L 77.246094 116.488281 C 77.246094 114.328125 79 112.574219 81.15625 112.574219 L 92.886719 112.574219 C 101.515625 112.574219 108.53125 119.597656 108.53125 128.234375 C 108.53125 136.867188 101.515625 143.890625 92.886719 143.890625 L 90.597656 143.890625 L 107.378906 160.691406 C 108.90625 162.21875 108.90625 164.703125 107.378906 166.226562 C 106.621094 166.996094 105.621094 167.378906 104.621094 167.378906 Z M 85.066406 136.0625 L 92.886719 136.0625 C 97.207031 136.0625 100.707031 132.546875 100.707031 128.234375 C 100.707031 123.917969 97.207031 120.402344 92.886719 120.402344 L 85.066406 120.402344 Z M 85.066406 136.0625 " fill-opacity="1" fill-rule="nonzero"/><path fill="rgb(86.268616%, 20.779419%, 27.059937%)" d="M 143.722656 167.378906 L 120.261719 167.378906 C 118.101562 167.378906 116.351562 165.625 116.351562 163.464844 L 116.351562 116.488281 C 116.351562 114.328125 118.101562 112.574219 120.261719 112.574219 L 143.722656 112.574219 C 145.882812 112.574219 147.632812 114.328125 147.632812 116.488281 C 147.632812 118.652344 145.882812 120.402344 143.722656 120.402344 L 124.171875 120.402344 L 124.171875 159.550781 L 143.722656 159.550781 C 145.882812 159.550781 147.632812 161.304688 147.632812 163.464844 C 147.632812 165.625 145.882812 167.378906 143.722656 167.378906 Z M 143.722656 167.378906 " fill-opacity="1" fill-rule="nonzero"/><path fill="rgb(86.268616%, 20.779419%, 27.059937%)" d="M 135.902344 143.890625 L 120.261719 143.890625 C 118.101562 143.890625 116.351562 142.136719 116.351562 139.976562 C 116.351562 137.816406 118.101562 136.0625 120.261719 136.0625 L 135.902344 136.0625 C 138.0625 136.0625 139.8125 137.816406 139.8125 139.976562 C 139.8125 142.136719 138.0625 143.890625 135.902344 143.890625 Z M 135.902344 143.890625 " fill-opacity="1" fill-rule="nonzero"/><path fill="rgb(86.268616%, 20.779419%, 27.059937%)" d="M 182.828125 167.378906 L 159.363281 167.378906 C 157.207031 167.378906 155.453125 165.625 155.453125 163.464844 L 155.453125 116.488281 C 155.453125 114.328125 157.207031 112.574219 159.363281 112.574219 L 182.828125 112.574219 C 184.984375 112.574219 186.738281 114.328125 186.738281 116.488281 C 186.738281 118.652344 184.984375 120.402344 182.828125 120.402344 L 163.273438 120.402344 L 163.273438 159.550781 L 182.828125 159.550781 C 184.984375 159.550781 186.738281 161.304688 186.738281 163.464844 C 186.738281 165.625 184.984375 167.378906 182.828125 167.378906 Z M 182.828125 167.378906 " fill-opacity="1" fill-rule="nonzero"/><path fill="rgb(86.268616%, 20.779419%, 27.059937%)" d="M 175.003906 143.890625 L 159.363281 143.890625 C 157.207031 143.890625 155.453125 142.136719 155.453125 139.976562 C 155.453125 137.816406 157.207031 136.0625 159.363281 136.0625 L 175.003906 136.0625 C 177.164062 136.0625 178.914062 137.816406 178.914062 139.976562 C 178.914062 142.136719 177.164062 143.890625 175.003906 143.890625 Z M 175.003906 143.890625 " fill-opacity="1" fill-rule="nonzero"/><g clip-path="url(#clip-0)"><path fill="rgb(86.268616%, 20.779419%, 27.059937%)" d="M 182.828125 183.039062 L 42.054688 183.039062 C 31.269531 183.039062 22.503906 174.253906 22.503906 163.464844 L 22.503906 116.488281 C 22.503906 105.699219 31.269531 96.917969 42.054688 96.917969 L 182.828125 96.917969 C 193.609375 96.917969 202.378906 105.699219 202.378906 116.488281 L 202.378906 163.464844 C 202.378906 174.253906 193.609375 183.039062 182.828125 183.039062 Z M 42.054688 104.746094 C 35.585938 104.746094 30.324219 110.015625 30.324219 116.488281 L 30.324219 163.464844 C 30.324219 169.9375 35.585938 175.207031 42.054688 175.207031 L 182.828125 175.207031 C 189.292969 175.207031 194.558594 169.9375 194.558594 163.464844 L 194.558594 116.488281 C 194.558594 110.015625 189.292969 104.746094 182.828125 104.746094 Z M 42.054688 104.746094 " fill-opacity="1" fill-rule="nonzero"/></g><g clip-path="url(#clip-1)"><path fill="rgb(86.268616%, 20.779419%, 27.059937%)" d="M 112.441406 81.257812 C 101.65625 81.257812 92.886719 72.472656 92.886719 61.683594 C 92.886719 50.898438 101.65625 42.113281 112.441406 42.113281 C 123.226562 42.113281 131.992188 50.898438 131.992188 61.683594 C 131.992188 72.472656 123.226562 81.257812 112.441406 81.257812 Z M 112.441406 49.941406 C 105.972656 49.941406 100.707031 55.210938 100.707031 61.683594 C 100.707031 68.160156 105.972656 73.429688 112.441406 73.429688 C 118.90625 73.429688 124.171875 68.160156 124.171875 61.683594 C 124.171875 55.210938 118.90625 49.941406 112.441406 49.941406 Z M 112.441406 49.941406 " fill-opacity="1" fill-rule="nonzero"/></g><path fill="rgb(86.268616%, 20.779419%, 27.059937%)" d="M 57.695312 104.746094 C 56.695312 104.746094 55.691406 104.363281 54.925781 103.601562 C 53.402344 102.074219 53.402344 99.59375 54.925781 98.066406 L 94.03125 58.921875 C 95.554688 57.394531 98.035156 57.394531 99.558594 58.921875 C 101.085938 60.449219 101.085938 62.929688 99.558594 64.457031 L 60.457031 103.601562 C 59.695312 104.363281 58.695312 104.746094 57.695312 104.746094 Z M 57.695312 104.746094 " fill-opacity="1" fill-rule="nonzero"/><path fill="rgb(86.268616%, 20.779419%, 27.059937%)" d="M 167.183594 104.746094 C 166.183594 104.746094 165.183594 104.363281 164.417969 103.601562 L 125.3125 64.457031 C 123.789062 62.929688 123.789062 60.449219 125.3125 58.921875 C 126.839844 57.394531 129.316406 57.394531 130.84375 58.921875 L 169.945312 98.066406 C 171.46875 99.59375 171.46875 102.074219 169.945312 103.601562 C 169.1875 104.363281 168.1875 104.746094 167.183594 104.746094 Z M 167.183594 104.746094 " fill-opacity="1" fill-rule="nonzero"/></svg>