<?xml version="1.0" encoding="UTF-8"?><svg xmlns="http://www.w3.org/2000/svg" xmlns:xlink="http://www.w3.org/1999/xlink" width="224.87999" zoomAndPan="magnify" viewBox="0 0 224.87999 225" height="225" preserveAspectRatio="xMidYMid meet" version="1.0"><defs><clipPath id="clip-0"><path d="M 83 99 L 194 99 L 194 126 L 83 126 Z M 83 99 " clip-rule="nonzero"/></clipPath><clipPath id="clip-1"><path d="M 0 112.5 L 123.5 -11.003906 L 247.003906 112.5 L 123.5 236 Z M 0 112.5 " clip-rule="nonzero"/></clipPath><clipPath id="clip-2"><path d="M 0 112.5 L 123.5 -11.003906 L 247.003906 112.5 L 123.5 236 Z M 0 112.5 " clip-rule="nonzero"/></clipPath><clipPath id="clip-3"><path d="M 19 65 L 205 65 L 205 160 L 19 160 Z M 19 65 " clip-rule="nonzero"/></clipPath><clipPath id="clip-4"><path d="M 0 112.5 L 123.5 -11.003906 L 247.003906 112.5 L 123.5 236 Z M 0 112.5 " clip-rule="nonzero"/></clipPath><clipPath id="clip-5"><path d="M 0 112.5 L 123.5 -11.003906 L 247.003906 112.5 L 123.5 236 Z M 0 112.5 " clip-rule="nonzero"/></clipPath><clipPath id="clip-6"><path d="M 116 104 L 124 104 L 124 116 L 116 116 Z M 116 104 " clip-rule="nonzero"/></clipPath><clipPath id="clip-7"><path d="M 0 112.5 L 123.5 -11.003906 L 247.003906 112.5 L 123.5 236 Z M 0 112.5 " clip-rule="nonzero"/></clipPath><clipPath id="clip-8"><path d="M 0 112.5 L 123.5 -11.003906 L 247.003906 112.5 L 123.5 236 Z M 0 112.5 " clip-rule="nonzero"/></clipPath><clipPath id="clip-9"><path d="M 159 104 L 168 104 L 168 116 L 159 116 Z M 159 104 " clip-rule="nonzero"/></clipPath><clipPath id="clip-10"><path d="M 0 112.5 L 123.5 -11.003906 L 247.003906 112.5 L 123.5 236 Z M 0 112.5 " clip-rule="nonzero"/></clipPath><clipPath id="clip-11"><path d="M 0 112.5 L 123.5 -11.003906 L 247.003906 112.5 L 123.5 236 Z M 0 112.5 " clip-rule="nonzero"/></clipPath></defs><g clip-path="url(#clip-0)"><g clip-path="url(#clip-1)"><g clip-path="url(#clip-2)"><path fill="rgb(100%, 87.059021%, 34.899902%)" d="M 104.441406 125.085938 C 104.4375 125.21875 104.398438 125.347656 104.304688 125.453125 C 104.214844 125.5625 104.066406 125.65625 103.863281 125.71875 C 103.660156 125.789062 103.382812 125.84375 103.039062 125.886719 C 102.695312 125.929688 102.265625 125.949219 101.738281 125.949219 C 101.203125 125.949219 100.761719 125.929688 100.410156 125.886719 C 100.066406 125.84375 99.785156 125.789062 99.585938 125.71875 C 99.390625 125.65625 99.242188 125.5625 99.160156 125.453125 C 99.066406 125.34375 99.027344 125.21875 99.027344 125.085938 L 99.027344 114.308594 L 89.054688 114.308594 L 89.054688 125.085938 C 89.058594 125.21875 89.015625 125.347656 88.929688 125.453125 C 88.847656 125.5625 88.703125 125.65625 88.496094 125.71875 C 88.289062 125.789062 88.015625 125.84375 87.671875 125.886719 C 87.328125 125.929688 86.890625 125.949219 86.355469 125.949219 C 85.835938 125.949219 85.398438 125.929688 85.046875 125.886719 C 84.699219 125.84375 84.417969 125.789062 84.214844 125.71875 C 84.007812 125.65625 83.863281 125.5625 83.769531 125.449219 C 83.679688 125.347656 83.636719 125.21875 83.636719 125.085938 L 83.636719 99.910156 C 83.636719 99.777344 83.679688 99.648438 83.769531 99.542969 C 83.859375 99.433594 84.007812 99.34375 84.214844 99.277344 C 84.417969 99.207031 84.699219 99.148438 85.046875 99.109375 C 85.398438 99.066406 85.835938 99.046875 86.355469 99.046875 C 86.890625 99.046875 87.328125 99.066406 87.671875 99.109375 C 88.015625 99.152344 88.289062 99.207031 88.496094 99.277344 C 88.703125 99.339844 88.847656 99.433594 88.929688 99.542969 C 89.015625 99.648438 89.058594 99.777344 89.054688 99.910156 L 89.054688 109.695312 L 99.027344 109.695312 L 99.027344 99.910156 C 99.027344 99.777344 99.070312 99.648438 99.160156 99.542969 C 99.242188 99.433594 99.390625 99.339844 99.589844 99.277344 C 99.785156 99.207031 100.066406 99.152344 100.410156 99.109375 C 100.761719 99.066406 101.203125 99.046875 101.738281 99.046875 C 102.265625 99.046875 102.695312 99.066406 103.039062 99.109375 C 103.382812 99.152344 103.660156 99.207031 103.863281 99.277344 C 104.066406 99.339844 104.214844 99.433594 104.304688 99.542969 C 104.398438 99.648438 104.4375 99.777344 104.441406 99.910156 Z M 132.082031 123.804688 L 123.84375 100.183594 C 123.757812 99.917969 123.660156 99.714844 123.542969 99.566406 C 123.429688 99.410156 123.230469 99.296875 122.964844 99.222656 C 122.695312 99.152344 122.324219 99.101562 121.847656 99.082031 C 121.359375 99.058594 120.714844 99.046875 119.90625 99.046875 C 119.210938 99.046875 118.640625 99.058594 118.21875 99.078125 C 117.789062 99.101562 117.460938 99.152344 117.21875 99.222656 C 116.980469 99.296875 116.804688 99.410156 116.691406 99.550781 C 116.582031 99.699219 116.488281 99.886719 116.402344 100.121094 L 108.1875 123.765625 C 108.023438 124.242188 107.917969 124.628906 107.875 124.917969 C 107.835938 125.203125 107.882812 125.429688 108.023438 125.585938 C 108.15625 125.746094 108.402344 125.84375 108.761719 125.886719 C 109.121094 125.929688 109.613281 125.949219 110.246094 125.949219 C 110.835938 125.953125 111.316406 125.9375 111.679688 125.910156 C 112.039062 125.878906 112.328125 125.824219 112.523438 125.753906 C 112.722656 125.675781 112.867188 125.570312 112.953125 125.445312 C 113.042969 125.3125 113.117188 125.148438 113.171875 124.960938 L 114.859375 119.75 L 124.871094 119.75 L 126.664062 125.101562 C 126.71875 125.28125 126.789062 125.421875 126.867188 125.535156 C 126.953125 125.648438 127.097656 125.734375 127.300781 125.796875 C 127.503906 125.851562 127.808594 125.894531 128.195312 125.914062 C 128.589844 125.9375 129.136719 125.953125 129.832031 125.949219 C 130.507812 125.949219 131.035156 125.929688 131.421875 125.894531 C 131.808594 125.859375 132.074219 125.773438 132.222656 125.628906 C 132.375 125.484375 132.425781 125.269531 132.390625 124.980469 C 132.347656 124.691406 132.242188 124.296875 132.082031 123.804688 Z M 119.84375 104.261719 L 119.820312 104.261719 L 116.054688 115.585938 L 123.609375 115.585938 Z M 150.453125 123.558594 C 150.453125 123.96875 150.4375 124.320312 150.402344 124.601562 C 150.367188 124.882812 150.316406 125.113281 150.25 125.296875 C 150.175781 125.484375 150.09375 125.621094 149.988281 125.699219 C 149.890625 125.78125 149.761719 125.824219 149.628906 125.824219 L 137.417969 125.824219 C 136.960938 125.824219 136.582031 125.691406 136.273438 125.421875 C 135.964844 125.15625 135.808594 124.71875 135.808594 124.117188 L 135.808594 99.910156 C 135.808594 99.777344 135.851562 99.652344 135.941406 99.542969 C 136.03125 99.433594 136.179688 99.339844 136.382812 99.277344 C 136.589844 99.207031 136.871094 99.152344 137.21875 99.109375 C 137.574219 99.066406 138.007812 99.046875 138.527344 99.046875 C 139.0625 99.046875 139.5 99.066406 139.84375 99.109375 C 140.1875 99.152344 140.460938 99.207031 140.664062 99.277344 C 140.875 99.339844 141.023438 99.433594 141.109375 99.542969 C 141.199219 99.648438 141.25 99.777344 141.25 99.910156 L 141.25 121.351562 L 149.628906 121.351562 C 149.761719 121.351562 149.890625 121.394531 149.988281 121.464844 C 150.09375 121.542969 150.175781 121.667969 150.25 121.839844 C 150.320312 122.011719 150.367188 122.238281 150.402344 122.519531 C 150.4375 122.800781 150.453125 123.144531 150.453125 123.558594 Z M 175.480469 123.808594 L 167.242188 100.183594 C 167.15625 99.917969 167.058594 99.710938 166.9375 99.566406 C 166.828125 99.410156 166.628906 99.296875 166.363281 99.222656 C 166.09375 99.152344 165.722656 99.101562 165.246094 99.082031 C 164.757812 99.058594 164.113281 99.046875 163.304688 99.046875 C 162.605469 99.046875 162.039062 99.058594 161.617188 99.078125 C 161.1875 99.101562 160.855469 99.152344 160.617188 99.21875 C 160.378906 99.296875 160.203125 99.410156 160.089844 99.550781 C 159.976562 99.699219 159.886719 99.886719 159.804688 100.121094 L 151.585938 123.765625 C 151.421875 124.242188 151.316406 124.628906 151.277344 124.917969 C 151.234375 125.207031 151.28125 125.429688 151.421875 125.585938 C 151.558594 125.746094 151.800781 125.84375 152.160156 125.886719 C 152.519531 125.929688 153.011719 125.949219 153.644531 125.949219 C 154.234375 125.949219 154.710938 125.9375 155.078125 125.910156 C 155.4375 125.878906 155.726562 125.824219 155.921875 125.753906 C 156.121094 125.675781 156.265625 125.570312 156.351562 125.445312 C 156.441406 125.3125 156.511719 125.148438 156.570312 124.957031 L 158.257812 119.75 L 168.269531 119.75 L 170.058594 125.101562 C 170.117188 125.28125 170.1875 125.421875 170.265625 125.535156 C 170.347656 125.648438 170.496094 125.730469 170.699219 125.796875 C 170.902344 125.851562 171.207031 125.894531 171.59375 125.914062 C 171.988281 125.9375 172.535156 125.953125 173.230469 125.949219 C 173.90625 125.949219 174.433594 125.929688 174.820312 125.894531 C 175.207031 125.859375 175.472656 125.773438 175.621094 125.625 C 175.773438 125.484375 175.824219 125.269531 175.789062 124.980469 C 175.746094 124.691406 175.640625 124.296875 175.480469 123.808594 Z M 163.238281 104.261719 L 167.007812 115.585938 L 159.453125 115.585938 L 163.21875 104.261719 Z M 193.851562 123.558594 C 193.851562 123.96875 193.835938 124.320312 193.800781 124.601562 C 193.765625 124.882812 193.714844 125.113281 193.648438 125.296875 C 193.578125 125.488281 193.492188 125.621094 193.386719 125.699219 C 193.289062 125.78125 193.160156 125.824219 193.027344 125.824219 L 180.816406 125.824219 C 180.359375 125.824219 179.980469 125.691406 179.667969 125.421875 C 179.363281 125.15625 179.207031 124.71875 179.207031 124.117188 L 179.207031 99.910156 C 179.207031 99.777344 179.25 99.652344 179.339844 99.542969 C 179.429688 99.433594 179.578125 99.339844 179.78125 99.277344 C 179.988281 99.207031 180.269531 99.152344 180.621094 99.109375 C 180.972656 99.066406 181.40625 99.046875 181.925781 99.046875 C 182.460938 99.046875 182.898438 99.066406 183.242188 99.109375 C 183.585938 99.152344 183.859375 99.207031 184.0625 99.277344 C 184.273438 99.339844 184.425781 99.433594 184.507812 99.542969 C 184.597656 99.648438 184.648438 99.777344 184.648438 99.910156 L 184.648438 121.351562 L 193.027344 121.351562 C 193.160156 121.351562 193.289062 121.394531 193.386719 121.464844 C 193.492188 121.542969 193.578125 121.667969 193.648438 121.835938 C 193.71875 122.011719 193.765625 122.238281 193.800781 122.519531 C 193.835938 122.800781 193.851562 123.144531 193.851562 123.558594 " fill-opacity="1" fill-rule="nonzero"/></g></g></g><g clip-path="url(#clip-3)"><g clip-path="url(#clip-4)"><g clip-path="url(#clip-5)"><path fill="rgb(86.268616%, 20.779419%, 27.059937%)" d="M 100.410156 99.109375 C 100.761719 99.066406 101.203125 99.046875 101.738281 99.046875 C 102.265625 99.046875 102.695312 99.066406 103.039062 99.109375 C 103.382812 99.152344 103.660156 99.207031 103.863281 99.277344 C 104.066406 99.339844 104.214844 99.433594 104.304688 99.542969 C 104.398438 99.648438 104.4375 99.777344 104.441406 99.910156 L 104.441406 125.085938 C 104.4375 125.21875 104.398438 125.347656 104.304688 125.453125 C 104.214844 125.5625 104.066406 125.65625 103.863281 125.71875 C 103.660156 125.789062 103.382812 125.84375 103.039062 125.886719 C 102.695312 125.929688 102.265625 125.949219 101.738281 125.949219 C 101.203125 125.949219 100.761719 125.929688 100.410156 125.886719 C 100.066406 125.84375 99.785156 125.789062 99.585938 125.71875 C 99.390625 125.65625 99.242188 125.5625 99.160156 125.453125 C 99.066406 125.34375 99.027344 125.21875 99.027344 125.085938 L 99.027344 114.308594 L 89.054688 114.308594 L 89.054688 125.085938 C 89.058594 125.21875 89.015625 125.347656 88.929688 125.453125 C 88.847656 125.5625 88.703125 125.65625 88.496094 125.71875 C 88.289062 125.789062 88.015625 125.84375 87.671875 125.886719 C 87.328125 125.929688 86.890625 125.949219 86.355469 125.949219 C 85.835938 125.949219 85.398438 125.929688 85.046875 125.886719 C 84.699219 125.84375 84.417969 125.789062 84.214844 125.71875 C 84.007812 125.65625 83.863281 125.5625 83.769531 125.449219 C 83.679688 125.347656 83.636719 125.21875 83.636719 125.085938 L 83.636719 99.910156 C 83.636719 99.777344 83.679688 99.648438 83.769531 99.542969 C 83.859375 99.433594 84.007812 99.34375 84.214844 99.277344 C 84.417969 99.207031 84.699219 99.148438 85.046875 99.109375 C 85.398438 99.066406 85.835938 99.046875 86.355469 99.046875 C 86.890625 99.046875 87.328125 99.066406 87.671875 99.109375 C 88.015625 99.152344 88.289062 99.207031 88.496094 99.277344 C 88.703125 99.339844 88.847656 99.433594 88.929688 99.542969 C 89.015625 99.648438 89.058594 99.777344 89.054688 99.910156 L 89.054688 109.695312 L 99.027344 109.695312 L 99.027344 99.910156 C 99.027344 99.777344 99.070312 99.648438 99.160156 99.542969 C 99.242188 99.433594 99.390625 99.339844 99.589844 99.277344 C 99.785156 99.207031 100.066406 99.152344 100.410156 99.109375 Z M 51.292969 106.949219 C 49.871094 108.367188 48.992188 110.332031 48.992188 112.496094 C 48.992188 114.664062 49.871094 116.625 51.289062 118.046875 C 52.710938 119.46875 54.675781 120.34375 56.839844 120.34375 C 59.007812 120.34375 60.96875 119.46875 62.390625 118.046875 C 63.808594 116.625 64.6875 114.664062 64.6875 112.496094 C 64.6875 110.332031 63.808594 108.367188 62.386719 106.949219 C 60.96875 105.527344 59.007812 104.648438 56.839844 104.648438 C 54.675781 104.648438 52.710938 105.527344 51.292969 106.949219 Z M 108.1875 123.765625 C 108.023438 124.242188 107.917969 124.628906 107.875 124.917969 C 107.835938 125.203125 107.882812 125.429688 108.023438 125.585938 C 108.15625 125.746094 108.402344 125.84375 108.761719 125.886719 C 109.121094 125.929688 109.613281 125.949219 110.246094 125.949219 C 110.835938 125.953125 111.316406 125.9375 111.679688 125.910156 C 112.039062 125.878906 112.328125 125.824219 112.523438 125.753906 C 112.722656 125.675781 112.867188 125.570312 112.953125 125.445312 C 113.042969 125.3125 113.117188 125.148438 113.171875 124.960938 L 114.859375 119.75 L 124.871094 119.75 L 126.664062 125.101562 C 126.71875 125.28125 126.789062 125.421875 126.867188 125.535156 C 126.953125 125.648438 127.097656 125.734375 127.300781 125.796875 C 127.503906 125.851562 127.808594 125.894531 128.195312 125.914062 C 128.589844 125.9375 129.136719 125.953125 129.832031 125.949219 C 130.507812 125.949219 131.035156 125.929688 131.421875 125.894531 C 131.808594 125.859375 132.074219 125.773438 132.222656 125.628906 C 132.375 125.484375 132.425781 125.269531 132.390625 124.980469 C 132.347656 124.691406 132.242188 124.296875 132.082031 123.804688 L 123.84375 100.183594 C 123.757812 99.917969 123.660156 99.714844 123.542969 99.566406 C 123.429688 99.410156 123.230469 99.296875 122.964844 99.222656 C 122.695312 99.152344 122.324219 99.101562 121.847656 99.082031 C 121.359375 99.058594 120.714844 99.046875 119.90625 99.046875 C 119.210938 99.046875 118.640625 99.058594 118.21875 99.078125 C 117.789062 99.101562 117.460938 99.152344 117.21875 99.222656 C 116.980469 99.296875 116.804688 99.410156 116.691406 99.550781 C 116.582031 99.699219 116.488281 99.886719 116.402344 100.121094 Z M 135.808594 124.117188 L 135.808594 99.910156 C 135.808594 99.777344 135.851562 99.652344 135.941406 99.542969 C 136.03125 99.433594 136.179688 99.339844 136.382812 99.277344 C 136.589844 99.207031 136.871094 99.152344 137.21875 99.109375 C 137.574219 99.066406 138.007812 99.046875 138.527344 99.046875 C 139.0625 99.046875 139.5 99.066406 139.84375 99.109375 C 140.1875 99.152344 140.460938 99.207031 140.664062 99.277344 C 140.875 99.339844 141.023438 99.433594 141.109375 99.542969 C 141.199219 99.648438 141.25 99.777344 141.25 99.910156 L 141.25 121.351562 L 149.628906 121.351562 C 149.761719 121.351562 149.890625 121.394531 149.988281 121.464844 C 150.09375 121.542969 150.175781 121.667969 150.25 121.839844 C 150.320312 122.011719 150.367188 122.238281 150.402344 122.519531 C 150.4375 122.800781 150.453125 123.144531 150.453125 123.558594 C 150.453125 123.96875 150.4375 124.320312 150.402344 124.601562 C 150.367188 124.882812 150.316406 125.113281 150.25 125.296875 C 150.175781 125.484375 150.09375 125.621094 149.988281 125.699219 C 149.890625 125.78125 149.761719 125.824219 149.628906 125.824219 L 137.417969 125.824219 C 136.960938 125.824219 136.582031 125.691406 136.273438 125.421875 C 135.964844 125.15625 135.808594 124.71875 135.808594 124.117188 Z M 151.585938 123.765625 C 151.421875 124.242188 151.316406 124.628906 151.277344 124.917969 C 151.234375 125.207031 151.28125 125.429688 151.421875 125.585938 C 151.558594 125.746094 151.800781 125.84375 152.160156 125.886719 C 152.519531 125.929688 153.011719 125.949219 153.644531 125.949219 C 154.234375 125.949219 154.710938 125.9375 155.078125 125.910156 C 155.4375 125.878906 155.726562 125.824219 155.921875 125.753906 C 156.121094 125.675781 156.265625 125.570312 156.351562 125.445312 C 156.441406 125.3125 156.511719 125.148438 156.570312 124.957031 L 158.257812 119.75 L 168.269531 119.75 L 170.058594 125.101562 C 170.117188 125.28125 170.1875 125.421875 170.265625 125.535156 C 170.347656 125.648438 170.496094 125.730469 170.699219 125.796875 C 170.902344 125.851562 171.207031 125.894531 171.59375 125.914062 C 171.988281 125.9375 172.535156 125.953125 173.230469 125.949219 C 173.90625 125.949219 174.433594 125.929688 174.820312 125.894531 C 175.207031 125.859375 175.472656 125.773438 175.621094 125.625 C 175.773438 125.484375 175.824219 125.269531 175.789062 124.980469 C 175.746094 124.691406 175.640625 124.296875 175.480469 123.808594 L 167.242188 100.183594 C 167.15625 99.917969 167.058594 99.710938 166.9375 99.566406 C 166.828125 99.410156 166.628906 99.296875 166.363281 99.222656 C 166.09375 99.152344 165.722656 99.101562 165.246094 99.082031 C 164.757812 99.058594 164.113281 99.046875 163.304688 99.046875 C 162.605469 99.046875 162.039062 99.058594 161.617188 99.078125 C 161.1875 99.101562 160.855469 99.152344 160.617188 99.21875 C 160.378906 99.296875 160.203125 99.410156 160.089844 99.550781 C 159.976562 99.699219 159.886719 99.886719 159.804688 100.121094 Z M 179.207031 124.117188 L 179.207031 99.910156 C 179.207031 99.777344 179.25 99.652344 179.339844 99.542969 C 179.429688 99.433594 179.578125 99.339844 179.78125 99.277344 C 179.988281 99.207031 180.269531 99.152344 180.621094 99.109375 C 180.972656 99.066406 181.40625 99.046875 181.925781 99.046875 C 182.460938 99.046875 182.898438 99.066406 183.242188 99.109375 C 183.585938 99.152344 183.859375 99.207031 184.0625 99.277344 C 184.273438 99.339844 184.425781 99.433594 184.507812 99.542969 C 184.597656 99.648438 184.648438 99.777344 184.648438 99.910156 L 184.648438 121.351562 L 193.027344 121.351562 C 193.160156 121.351562 193.289062 121.394531 193.386719 121.464844 C 193.492188 121.542969 193.578125 121.667969 193.648438 121.835938 C 193.71875 122.011719 193.765625 122.238281 193.800781 122.519531 C 193.835938 122.800781 193.851562 123.144531 193.851562 123.558594 C 193.851562 123.96875 193.835938 124.320312 193.800781 124.601562 C 193.765625 124.882812 193.714844 125.113281 193.648438 125.296875 C 193.578125 125.488281 193.492188 125.621094 193.386719 125.699219 C 193.289062 125.78125 193.160156 125.824219 193.027344 125.824219 L 180.816406 125.824219 C 180.359375 125.824219 179.980469 125.691406 179.667969 125.421875 C 179.363281 125.15625 179.207031 124.71875 179.207031 124.117188 Z M 196.121094 159.78125 C 198.464844 159.785156 200.671875 158.867188 202.328125 157.210938 C 203.988281 155.550781 204.902344 153.347656 204.902344 151 L 204.902344 73.996094 C 204.902344 71.648438 203.988281 69.445312 202.328125 67.785156 C 200.671875 66.128906 198.464844 65.210938 196.121094 65.214844 L 73.0625 65.300781 C 64.996094 65.300781 59.769531 67.378906 54.429688 72.722656 C 7.332031 119.820312 7.332031 105.175781 54.429688 152.273438 C 59.769531 157.613281 64.996094 159.695312 73.0625 159.695312 L 196.121094 159.78125 " fill-opacity="1" fill-rule="evenodd"/></g></g></g><g clip-path="url(#clip-6)"><g clip-path="url(#clip-7)"><g clip-path="url(#clip-8)"><path fill="rgb(86.268616%, 20.779419%, 27.059937%)" d="M 119.820312 104.261719 L 116.054688 115.585938 L 123.609375 115.585938 L 119.84375 104.261719 L 119.820312 104.261719 " fill-opacity="1" fill-rule="evenodd"/></g></g></g><g clip-path="url(#clip-9)"><g clip-path="url(#clip-10)"><g clip-path="url(#clip-11)"><path fill="rgb(86.268616%, 20.779419%, 27.059937%)" d="M 163.21875 104.261719 L 159.453125 115.585938 L 167.007812 115.585938 L 163.238281 104.261719 L 163.21875 104.261719 " fill-opacity="1" fill-rule="evenodd"/></g></g></g></svg>