<?xml version="1.0" encoding="UTF-8"?><svg xmlns="http://www.w3.org/2000/svg" xmlns:xlink="http://www.w3.org/1999/xlink" width="224.87999" zoomAndPan="magnify" viewBox="0 0 224.87999 225" height="225" preserveAspectRatio="xMidYMid meet" version="1.0"><defs><clipPath id="clip-0"><path d="M 38.679688 22.546875 L 186.351562 22.546875 L 186.351562 202.453125 L 38.679688 202.453125 Z M 38.679688 22.546875 " clip-rule="nonzero"/></clipPath></defs><g clip-path="url(#clip-0)"><path fill="rgb(86.268616%, 20.779419%, 27.059937%)" d="M 149.421875 49.355469 C 127.933594 39.417969 112.550781 22.578125 112.550781 22.578125 C 112.550781 22.578125 97.164062 39.417969 75.679688 49.355469 C 54.191406 59.292969 38.808594 61.8125 38.808594 61.8125 C 38.808594 61.8125 38.808594 95.320312 38.808594 131.40625 C 38.808594 189.828125 112.550781 202.496094 112.550781 202.496094 C 112.550781 202.496094 186.289062 189.828125 186.289062 131.40625 C 186.289062 95.320312 186.289062 61.8125 186.289062 61.8125 C 186.289062 61.8125 170.90625 59.292969 149.421875 49.355469 Z M 149.421875 49.355469 " fill-opacity="1" fill-rule="nonzero"/></g><path stroke-linecap="round" transform="matrix(0.705957, 0, 0, 0.705229, -37.536239, -37.396473)" fill="none" stroke-linejoin="round" d="M 124.85419 237.597263 C 124.85419 307.188996 212.600751 322.277176 212.600751 322.277176 C 212.600751 322.277176 300.347313 307.188996 300.347313 237.597263 C 300.347313 194.614785 300.347313 154.70644 300.347313 154.70644 C 300.347313 154.70644 282.03773 151.698774 256.474032 139.867515 C 230.910335 128.030716 212.600751 107.968534 212.600751 107.968534 " stroke="rgb(100%, 100%, 100%)" stroke-width="6.012" stroke-opacity="1" stroke-miterlimit="10"/><path fill="rgb(100%, 87.059021%, 34.899902%)" d="M 81.574219 80.722656 C 81.574219 81.660156 81.484375 82.59375 81.300781 83.511719 C 81.117188 84.433594 80.84375 85.328125 80.484375 86.199219 C 80.125 87.066406 79.683594 87.890625 79.160156 88.671875 C 78.636719 89.453125 78.042969 90.175781 77.378906 90.839844 C 76.714844 91.503906 75.992188 92.097656 75.207031 92.621094 C 74.425781 93.140625 73.601562 93.582031 72.730469 93.941406 C 71.863281 94.300781 70.96875 94.574219 70.046875 94.757812 C 69.121094 94.941406 68.191406 95.03125 67.25 95.03125 C 66.308594 95.03125 65.378906 94.941406 64.457031 94.757812 C 63.535156 94.574219 62.636719 94.300781 61.769531 93.941406 C 60.898438 93.582031 60.074219 93.140625 59.292969 92.621094 C 58.511719 92.097656 57.785156 91.503906 57.121094 90.839844 C 56.457031 90.175781 55.863281 89.453125 55.339844 88.671875 C 54.816406 87.890625 54.375 87.066406 54.015625 86.199219 C 53.65625 85.328125 53.382812 84.433594 53.199219 83.511719 C 53.015625 82.59375 52.925781 81.660156 52.925781 80.722656 C 52.925781 79.78125 53.015625 78.851562 53.199219 77.929688 C 53.382812 77.007812 53.65625 76.113281 54.015625 75.246094 C 54.375 74.378906 54.816406 73.554688 55.339844 72.773438 C 55.863281 71.992188 56.457031 71.265625 57.121094 70.601562 C 57.785156 69.9375 58.511719 69.34375 59.292969 68.824219 C 60.074219 68.300781 60.898438 67.859375 61.769531 67.5 C 62.636719 67.140625 63.535156 66.871094 64.457031 66.6875 C 65.378906 66.503906 66.308594 66.410156 67.25 66.410156 C 68.191406 66.410156 69.121094 66.503906 70.046875 66.6875 C 70.96875 66.871094 71.863281 67.140625 72.730469 67.5 C 73.601562 67.859375 74.425781 68.300781 75.207031 68.824219 C 75.992188 69.34375 76.714844 69.9375 77.378906 70.601562 C 78.042969 71.265625 78.636719 71.992188 79.160156 72.773438 C 79.683594 73.554688 80.125 74.378906 80.484375 75.246094 C 80.84375 76.113281 81.117188 77.007812 81.300781 77.929688 C 81.484375 78.851562 81.574219 79.78125 81.574219 80.722656 Z M 81.574219 80.722656 " fill-opacity="1" fill-rule="nonzero"/><path stroke-linecap="round" transform="matrix(0.705957, 0, 0, 0.705229, -37.536239, -37.396473)" fill="none" stroke-linejoin="round" d="M 258.952936 182.922 L 211.3115 260.140908 L 185.781002 229.266638 " stroke="rgb(100%, 100%, 100%)" stroke-width="7.515" stroke-opacity="1" stroke-miterlimit="10"/></svg>